# xmcd
#
# Track frame offsets:
#	150
#	19123
#	35195
#	49887
#	68076
#	85428
#	101341
#	117116
#	135711
#	153861
#	172703
#	192693
#	213113
#	230582
#	248595
#
# Disc length: 3553 seconds
#
# Revision: 3
# Processed by: cddbd v1.5.1PL2 Copyright (c) Steve Scherf et al.
# Submitted via: audiograbber 1.83.01
#
DISCID=c50ddf0f
DTITLE=Various Artist - CBE312
DYEAR=1900
DGENRE=karaoke
TTITLE0=Alan Jackson - Drive (For Daddy Gene)
TTITLE1=Kenny Chesney - Good Stuff, The
TTITLE2=Jaime O'Neal - When I Think About Angels
TTITLE3=Anthony Smith - If That Ain't Country
TTITLE4=Darryl Worley - I Miss My Friend
TTITLE5=Cyndi Thompson - What I Really Meant To Say
TTITLE6=Brad Paisley - I'm Gonna Miss Her
TTITLE7=Joe Nichols - Impossible, The
TTITLE8=Trisha Yearwood - I Would've Loved You Anyway
TTITLE9=Travis Tritt - Modern Day Bonnie And Clyde
TTITLE10=Montgomery Gentry - My Town
TTITLE11=Martina Mcbride - Where Would You Be
TTITLE12=Blake Shelton - Ol' Red
TTITLE13=Keith Urban - Somebody Like You
TTITLE14=Dixie Chicks - Long Time Gone
EXTD=
EXTT0=
EXTT1=
EXTT2=
EXTT3=
EXTT4=
EXTT5=
EXTT6=
EXTT7=
EXTT8=
EXTT9=
EXTT10=
EXTT11=
EXTT12=
EXTT13=
EXTT14=
PLAYORDER=
